<svg xmlns="http://www.w3.org/2000/svg" viewBox="0 0 128 128" width="128" height="128">
  <!-- Background circle with VSCode blue -->
  <circle cx="64" cy="64" r="64" fill="#007ACC"/>
  
  <!-- Notepad/Document shape with subtle shadow -->
  <rect x="30" y="24" width="68" height="80" rx="4" fill="#FFFFFF" opacity="0.15"/>
  <rect x="28" y="22" width="68" height="80" rx="4" fill="#FFFFFF"/>
  
  <!-- Lines representing text content -->
  <line x1="40" y1="38" x2="84" y2="38" stroke="#007ACC" stroke-width="2.5" stroke-linecap="round" opacity="0.8"/>
  <line x1="40" y1="48" x2="76" y2="48" stroke="#007ACC" stroke-width="2.5" stroke-linecap="round" opacity="0.8"/>
  <line x1="40" y1="58" x2="82" y2="58" stroke="#007ACC" stroke-width="2.5" stroke-linecap="round" opacity="0.8"/>
  
  <!-- Scratched out lines - text with strikethrough to represent scratchpad concept -->
  <line x1="40" y1="68" x2="70" y2="68" stroke="#007ACC" stroke-width="2.5" stroke-linecap="round" opacity="0.4"/>
  <line x1="40" y1="68" x2="70" y2="68" stroke="#3DADFF" stroke-width="2" stroke-linecap="round" transform="translate(0, -0.5)"/>
  
  <line x1="40" y1="78" x2="78" y2="78" stroke="#007ACC" stroke-width="2.5" stroke-linecap="round" opacity="0.4"/>
  <line x1="40" y1="78" x2="78" y2="78" stroke="#3DADFF" stroke-width="2" stroke-linecap="round" transform="translate(0, -0.5)"/>
  
  <line x1="40" y1="88" x2="65" y2="88" stroke="#007ACC" stroke-width="2.5" stroke-linecap="round" opacity="0.4"/>
  <line x1="40" y1="88" x2="65" y2="88" stroke="#3DADFF" stroke-width="2" stroke-linecap="round" transform="translate(0, -0.5)"/>
  
  <!-- Larger pencil icon in corner to represent editing -->
  <g transform="translate(78, 82) rotate(-45)">
    <rect x="0" y="0" width="8" height="20" rx="1" fill="#FFA500"/>
    <polygon points="0,0 8,0 4,-6" fill="#CC7700"/>
    <rect x="0" y="20" width="8" height="3" fill="#333333"/>
  </g>
</svg>
